<?xml version="1.0" encoding="UTF-8" standalone="no"?>
<!-- Generator: Adobe Illustrator 19.1.0, SVG Export Plug-In . SVG Version: 6.00 Build 0)  -->

<svg
   version="1.1"
   id="Layer_1"
   x="0px"
   y="0px"
   viewBox="0 0 256 256"
   style="enable-background:new 0 0 256 256;"
   xml:space="preserve"
   sodipodi:docname="ORCID_iD.svg"
   inkscape:version="1.1.1 (3bf5ae0d25, 2021-09-20)"
   xmlns:inkscape="http://www.inkscape.org/namespaces/inkscape"
   xmlns:sodipodi="http://sodipodi.sourceforge.net/DTD/sodipodi-0.dtd"
   xmlns="http://www.w3.org/2000/svg"
   xmlns:svg="http://www.w3.org/2000/svg"><defs
   id="defs86" /><sodipodi:namedview
   id="namedview84"
   pagecolor="#ffffff"
   bordercolor="#666666"
   borderopacity="1.0"
   inkscape:pageshadow="2"
   inkscape:pageopacity="0.0"
   inkscape:pagecheckerboard="0"
   showgrid="false"
   inkscape:zoom="2.546875"
   inkscape:cx="50.650307"
   inkscape:cy="128"
   inkscape:window-width="1271"
   inkscape:window-height="860"
   inkscape:window-x="1983"
   inkscape:window-y="112"
   inkscape:window-maximized="0"
   inkscape:current-layer="Layer_1" />
<style
   type="text/css"
   id="style71">
	.st0{fill:#A6CE39;}
	.st1{fill:#FFFFFF;}
</style>
<path
   class="st0"
   d="M256,128c0,70.7-57.3,128-128,128C57.3,256,0,198.7,0,128C0,57.3,57.3,0,128,0C198.7,0,256,57.3,256,128z"
   id="path73"
   style="fill:#ffffff" />
<g
   id="g81"
   style="fill:#202020;fill-opacity:1">
	<path
   class="st1"
   d="M86.3,186.2H70.9V79.1h15.4v48.4V186.2z"
   id="path75"
   style="fill:#202020;fill-opacity:1" />
	<path
   class="st1"
   d="M108.9,79.1h41.6c39.6,0,57,28.3,57,53.6c0,27.5-21.5,53.6-56.8,53.6h-41.8V79.1z M124.3,172.4h24.5   c34.9,0,42.9-26.5,42.9-39.7c0-21.5-13.7-39.7-43.7-39.7h-23.7V172.4z"
   id="path77"
   style="fill:#202020;fill-opacity:1" />
	<path
   class="st1"
   d="M88.7,56.8c0,5.5-4.5,10.1-10.1,10.1c-5.6,0-10.1-4.6-10.1-10.1c0-5.6,4.5-10.1,10.1-10.1   C84.2,46.7,88.7,51.3,88.7,56.8z"
   id="path79"
   style="fill:#202020;fill-opacity:1" />
</g>
</svg>
