<?xml version="1.0" encoding="UTF-8" standalone="no"?>
<svg
   viewBox="0 0 52.807339 26.375425"
   version="1.1"
   id="svg4"
   sodipodi:docname="ssrn.svg"
   width="52.807339"
   height="26.375425"
   inkscape:version="1.1.1 (3bf5ae0d25, 2021-09-20)"
   xmlns:inkscape="http://www.inkscape.org/namespaces/inkscape"
   xmlns:sodipodi="http://sodipodi.sourceforge.net/DTD/sodipodi-0.dtd"
   xmlns="http://www.w3.org/2000/svg"
   xmlns:svg="http://www.w3.org/2000/svg">
  <defs
     id="defs8" />
  <sodipodi:namedview
     id="namedview6"
     pagecolor="#ffffff"
     bordercolor="#666666"
     borderopacity="1.0"
     inkscape:pageshadow="2"
     inkscape:pageopacity="0.0"
     inkscape:pagecheckerboard="0"
     showgrid="false"
     inkscape:zoom="27.166667"
     inkscape:cx="18.423313"
     inkscape:cy="8.1533741"
     inkscape:window-width="1584"
     inkscape:window-height="821"
     inkscape:window-x="1675"
     inkscape:window-y="55"
     inkscape:window-maximized="0"
     inkscape:current-layer="svg4"
     fit-margin-top="3"
     fit-margin-bottom="3"
     fit-margin-left="0"
     fit-margin-right="0" />
  <path
     fill="rgb(255, 255, 255)"
     d="M 6.792347,3 C 3.0430244,3 0.459864,5.1326105 0.459864,8.128115 c 0,1.342517 0.462065,2.443081 1.3443874,3.340234 0.9901381,0.995647 2.0506859,1.548069 4.5282312,2.372422 2.5809599,0.792235 3.0760289,1.034188 3.6085031,1.413175 0.9175283,0.721577 1.4478013,1.719364 1.4478013,2.785669 0,2.169012 -2.1210953,3.924774 -4.7394601,3.924774 -1.5908218,0 -3.2520533,-0.62094 -4.2795966,-1.618728 C 1.593022,19.589825 1.062748,18.729074 0.602884,17.420817 0.532474,17.249521 0.459864,17.146747 0.319045,17.146747 0.14302,17.146747 0,17.31804 0,17.557852 c 0,0.276212 0.14302,1.068446 0.389454,1.824282 0.21343,0.723717 0.35425,1.20548 0.35425,1.273999 0.21343,1.032046 0.248634,1.066306 0.530274,1.308256 0.7437036,0.550284 2.9352088,1.066308 4.5634359,1.066308 4.0661665,0 6.9661711,-2.5116 6.9661711,-6.023128 0,-2.580115 -1.731642,-4.438656 -5.3027395,-5.575621 C 3.9275475,10.297126 3.7493228,10.192208 2.9374096,9.333597 A 3.2476525,3.1603748 0 0 1 2.0880911,7.1645858 c 0,-1.8585403 1.5556169,-3.2010571 3.7141177,-3.2010571 2.5809597,0 4.9858952,1.4795523 5.6591892,3.5115276 0.176023,0.5502827 0.246434,0.6530587 0.459864,0.6530587 0.140817,0 0.281639,-0.1712935 0.281639,-0.413247 0,-0.1027764 -0.03521,-0.3425883 -0.07041,-0.6209408 -0.389453,-2.3381636 -0.424658,-2.44094 -0.462063,-2.8541869 0,-0.4817646 -0.103416,-0.6894585 -0.35205,-0.6894585 A 0.2662371,0.25908223 0 0 0 11.17756,3.6187988 C 10.825509,3.8950111 10.788104,3.92927 10.612079,3.92927 A 1.0891518,1.0598819 0 0 1 10.32824,3.860752 C 8.4535783,3.1027766 8.1367341,3 6.792347,3 Z m 11.564811,0.068521 c -2.688775,0 -4.774665,1.0663051 -5.729598,2.7878101 l 0.211229,1.4110346 c 0.0374,0.205553 0.03521,0.3425881 0.03521,0.4132469 0,0.5502824 -0.352049,0.9635294 -0.811913,1.0663054 0.105615,1.068447 0.565479,1.997717 1.342187,2.753552 0.99014,0.997787 2.052887,1.550212 4.528233,2.376704 2.547952,0.824353 3.078228,1.032048 3.608501,1.408895 0.919728,0.68946 1.450001,1.721506 1.450001,2.787811 0,2.16901 -2.121095,3.924774 -4.739461,3.924774 -1.59082,0 -3.256451,-0.620941 -4.279594,-1.616588 a 6.2048648,6.0381148 0 0 1 -0.849319,-1.03419 c -0.21123,0.481765 -0.459864,0.96353 -0.743704,1.376775 0.21343,0.96353 0.248635,1.034189 0.532474,1.23974 0.741504,0.550283 2.935209,1.066307 4.561236,1.066307 4.033161,0 6.968369,-2.511601 6.968369,-6.023129 -0.07041,-2.511599 -1.839458,-4.33588 -5.412757,-5.507103 C 15.41975,10.331385 15.243724,10.262867 14.467015,9.402114 A 3.249853,3.1625161 0 0 1 13.617698,7.2331036 c 0,-1.8927992 1.555616,-3.2010572 3.714117,-3.2010572 2.580961,0 4.950691,1.4795521 5.659189,3.5115275 0.176022,0.5502821 0.281637,0.6530581 0.459864,0.6530581 0.140814,0 0.28384,-0.171293 0.28384,-0.4132465 0,-0.1027764 -0.0374,-0.3083292 -0.07259,-0.6187997 -0.389453,-2.3403047 -0.42246,-2.4430811 -0.459864,-2.856328 0,-0.4817644 -0.105624,-0.6894585 -0.352049,-0.6894585 -0.07042,0 -0.107802,0.034258 -0.14301,0.068519 -0.352049,0.2783527 -0.387254,0.3104705 -0.565479,0.3104705 -0.07042,0 -0.140814,-0.034259 -0.283838,-0.068517 C 20.020603,3.1370353 19.666354,3.0685177 18.357171,3.0685177 Z m 10.257831,0.3789875 c -0.673295,0 -1.414798,0.034259 -2.156301,0.068517 -1.593023,0.1027764 -1.593023,0.1027764 -2.336724,0.1027764 h -0.281642 a 1.7822484,1.7343522 0 0 1 0.105624,0.6551996 c 0.03521,0.2740705 0.03521,0.4132469 0.246434,1.54807 l 0.248634,1.5138108 a 2.4203371,2.3552928 0 0 1 0.03521,0.4132469 1.1221564,1.0919994 0 0 1 -0.319043,0.7922348 v 5.404326 c 0.638091,0.892871 0.954934,1.927059 0.954934,3.096141 0,1.342516 -0.389455,2.547998 -1.060549,3.545785 -0.176022,1.239743 -0.638087,1.548072 -1.804251,1.892801 -0.281641,0.06851 -0.352048,0.102762 -0.352048,0.276212 0,0.205551 0.105624,0.274069 0.387254,0.274069 0.105624,0 0.462063,-0.03427 0.743704,-0.06853 0.495068,-0.06853 1.238771,-0.10278 1.945069,-0.10278 1.379594,0 2.900005,0.03427 3.254254,0.10278 0.389456,0.03425 0.706299,0.06853 0.884524,0.06853 0.246433,0 0.459862,-0.10278 0.459862,-0.274069 0,-0.171288 -0.176022,-0.276212 -0.530271,-0.310472 -2.052902,-0.205554 -2.723994,-0.929271 -2.653587,-2.890588 v -5.096001 c 0.03521,-0.479622 0.105624,-0.55028 0.849321,-0.513881 h 1.590822 c 0.638088,0 0.814113,0.102771 1.133156,0.584541 0.105624,0.171294 0.176022,0.27407 0.176022,0.30833 l 3.571097,5.33581 c 1.452204,2.169009 2.723978,2.995503 4.493025,2.995503 1.06055,0 2.050688,-0.27621 2.050688,-0.552424 0,-0.102762 -0.105624,-0.205553 -0.246434,-0.205553 -1.520413,0.03427 -2.547954,-0.792234 -4.350006,-3.477267 l -4.03316,-5.712655 c 2.332325,-1.171223 3.608504,-2.82207 3.608504,-4.922563 0,-1.5138112 -0.638091,-2.856328 -1.769048,-3.6828218 -1.130958,-0.8243527 -2.58316,-1.169082 -4.845074,-1.169082 z m 23.767713,0.239812 c -0.176022,0 -0.389455,0.034259 -0.7085,0.070659 -0.352049,0.068519 -0.706298,0.1027764 -1.309185,0.1027764 -0.847118,0 -2.261912,-0.068517 -2.794386,-0.1027764 l -0.63589,-0.034259 c -0.281639,0 -0.42466,0.1027764 -0.42466,0.2740703 0,0.205553 0.107802,0.3104705 0.42466,0.3789881 2.759184,0.3789882 3.007818,0.9977878 2.93521,7.5711971 v 6.744703 c 0,0.449646 -0.03521,0.552422 -0.176022,0.518163 -0.07042,0 -0.176022,-0.102762 -0.389454,-0.342587 L 36.005818,4.1369639 C 35.724181,3.8264934 35.545954,3.723717 35.229111,3.723717 c -0.105624,0 -0.283839,0 -0.495069,0.034259 h -0.248636 c -0.07042,0 -0.706298,0 -1.130958,-0.034259 0.176022,0.1027764 0.35205,0.2398117 0.528075,0.3425881 1.276179,0.9292701 2.052886,2.5137399 2.052886,4.2331039 0,0.276211 -0.03521,0.552423 -0.07042,0.792235 v 8.950113 l 0.352048,0.513882 c 0.319046,0.449647 0.567678,0.826495 0.814114,1.171224 V 9.641926 c 0,-0.481765 0.07042,-0.6188 0.283841,-0.6188 0.140814,0 0.176022,0.03426 0.352049,0.205553 l 12.2029,13.630722 c 0.462062,0.516024 0.462062,0.516024 0.673292,0.516024 0.352049,0 0.459866,-0.207693 0.459866,-0.826493 V 22.27486 c 0.03519,-0.826493 0.03519,-2.09835 0.03519,-3.890515 V 9.228679 l 0.03521,-0.89287 c -0.03521,-3.4087515 0.105624,-3.7534807 1.450002,-4.0960687 0.21123,-0.034259 0.283839,-0.1049184 0.283839,-0.2419528 0,-0.1712934 -0.176022,-0.3104705 -0.424658,-0.3104705 z M 27.83608,4.411037 c 1.344386,0 2.794389,0.4475057 3.608502,1.1712229 1.025343,0.8243526 1.626028,2.2011284 1.626028,3.5115281 0,2.338163 -1.520413,3.783456 -4.068369,3.783456 h -1.626026 c -0.954933,-0.03427 -1.025343,-0.102784 -1.025343,-0.99779 V 6.1667981 c 0,-0.963529 0,-1.0684465 0.176022,-1.3082581 0.213429,-0.2762117 0.638087,-0.4475058 1.309183,-0.4475054 z"
     id="path2"
     style="fill:#ffffff;stroke-width:2.17053" />
</svg>
