<?xml version="1.0" encoding="UTF-8" standalone="no"?>
<!-- Created with Inkscape (http://www.inkscape.org/) -->

<svg
   width="24.010759"
   height="23.512899"
   id="svg2"
   version="1.1"
   inkscape:version="1.1.1 (3bf5ae0d25, 2021-09-20)"
   sodipodi:docname="Twitter_bird_logo_2012.svg"
   xmlns:inkscape="http://www.inkscape.org/namespaces/inkscape"
   xmlns:sodipodi="http://sodipodi.sourceforge.net/DTD/sodipodi-0.dtd"
   xmlns="http://www.w3.org/2000/svg"
   xmlns:svg="http://www.w3.org/2000/svg"
   xmlns:rdf="http://www.w3.org/1999/02/22-rdf-syntax-ns#"
   xmlns:cc="http://creativecommons.org/ns#"
   xmlns:dc="http://purl.org/dc/elements/1.1/">
  <defs
     id="defs4" />
  <sodipodi:namedview
     id="base"
     pagecolor="#ffffff"
     bordercolor="#666666"
     borderopacity="1.0"
     inkscape:pageopacity="0.0"
     inkscape:pageshadow="2"
     inkscape:zoom="4.512895"
     inkscape:cx="-8.7526964"
     inkscape:cy="11.854918"
     inkscape:document-units="px"
     inkscape:current-layer="layer1"
     showgrid="false"
     inkscape:window-width="1600"
     inkscape:window-height="837"
     inkscape:window-x="-8"
     inkscape:window-y="178"
     inkscape:window-maximized="1"
     fit-margin-top="2"
     fit-margin-left="0"
     fit-margin-right="0"
     fit-margin-bottom="2"
     inkscape:pagecheckerboard="0" />
  <metadata
     id="metadata7">
    <rdf:RDF>
      <cc:Work
         rdf:about="">
        <dc:format>image/svg+xml</dc:format>
        <dc:type
           rdf:resource="http://purl.org/dc/dcmitype/StillImage" />
      </cc:Work>
    </rdf:RDF>
  </metadata>
  <g
     inkscape:label="Layer 1"
     inkscape:groupmode="layer"
     id="layer1"
     transform="translate(-356.06785,-454.24004)">
    <path
       style="fill:#ffffff;stroke-width:0.14"
       inkscape:connector-curvature="0"
       id="path5"
       d="m 380.07861,458.54988 c -0.88336,0.39186 -1.83287,0.65658 -2.82919,0.77567 1.01697,-0.60963 1.79816,-1.57499 2.16589,-2.72534 -0.95191,0.56461 -2.0061,0.97447 -3.12825,1.19537 -0.89848,-0.95743 -2.17874,-1.55554 -3.59561,-1.55554 -2.72043,0 -4.92618,2.20551 -4.92618,4.92594 0,0.38609 0.0436,0.7621 0.12762,1.12262 -4.09408,-0.20541 -7.72379,-2.16661 -10.15345,-5.14695 -0.42403,0.72753 -0.66702,1.57367 -0.66702,2.47647 0,1.70909 0.86968,3.21685 2.19147,4.10021 -0.80748,-0.0256 -1.56707,-0.2472 -2.2312,-0.61612 -5.6e-4,0.0205 -5.6e-4,0.0412 -5.6e-4,0.0619 0,2.38667 1.69804,4.37752 3.95157,4.83037 -0.41334,0.11261 -0.84854,0.17276 -1.29778,0.17276 -0.31742,0 -0.62596,-0.031 -0.92682,-0.0884 0.62692,1.957 2.4461,3.3812 4.60179,3.42081 -1.68592,1.32132 -3.80991,2.10887 -6.11795,2.10887 -0.39762,0 -0.78971,-0.0234 -1.17509,-0.0689 2.18006,1.39779 4.76939,2.21332 7.55128,2.21332 9.06083,0 14.01582,-7.50614 14.01582,-14.01595 0,-0.21357 -0.005,-0.42595 -0.0143,-0.63736 0.96235,-0.69439 1.79745,-1.5619 2.45787,-2.54983 z" />
  </g>
</svg>
